<?xml version="1.0" encoding="utf-8"?>
<svg version="1.1" xmlns="http://www.w3.org/2000/svg" viewBox="0 0 53.5 61.1" enable-background="new 0 0 53.5 61.1">
 <g>
  <path d="M27.5,0.2c10-1.2,17.7,3.3,21.9,6.4L46.6,11c-4.9-3.8-11.7-5.6-17.5-5C13.7,7.3,4,20,4,32.5
		c0,9,4.8,16.8,13.1,21C12.5,49,9.6,42.7,9.5,35.8C9.3,25.3,18.3,13.6,30.8,12c6.2-0.8,11.6,0.5,17.4,4.7l-1.9,3.1
		c-5-3.9-11.2-4.7-14.6-4.3c-11.5,1.2-19.1,10.8-19.1,21.4c0,7.5,3.8,14.1,10.8,17.7c-3.9-3.8-6.3-8.1-6.4-14
		c-0.2-9.1,7.4-18.7,18.3-18.8c4.6-0.1,8,1,11.5,3.7L45.2,28c-2.3-1.5-5.4-3.2-9.7-3c-9.2,0.3-15.9,7.3-15.9,16.3
		c0,7.5,4.5,12.4,11.9,15c2.4,0.8,5.7,1.2,7.9,0.8c6.7-1.3,11.4-4.8,14.1-9.9C47.1,60.3,35.8,60.9,31,61.1
		C14.4,61.4,0.5,48.5,0,31.5C-0.3,18.3,8.9,2.5,27.5,0.2z" fill="#0069b4"/>
 </g>
</svg>
